<?xml version="1.0" encoding="UTF-8" standalone="no"?>
<svg
   xmlns:dc="http://purl.org/dc/elements/1.1/"
   xmlns:cc="http://creativecommons.org/ns#"
   xmlns:rdf="http://www.w3.org/1999/02/22-rdf-syntax-ns#"
   xmlns:svg="http://www.w3.org/2000/svg"
   xmlns="http://www.w3.org/2000/svg"
   xmlns:sodipodi="http://sodipodi.sourceforge.net/DTD/sodipodi-0.dtd"
   xmlns:inkscape="http://www.inkscape.org/namespaces/inkscape"
   width="100"
   height="100"
   viewBox="0 0 26.458333 26.458334"
   version="1.1"
   id="svg8"
   inkscape:version="1.0.2 (e86c870879, 2021-01-15)"
   sodipodi:docname="FileIcon-PDF.svg">
  <defs
     id="defs2" />
  <sodipodi:namedview
     id="base"
     pagecolor="#ffffff"
     bordercolor="#666666"
     borderopacity="1.0"
     inkscape:pageopacity="0.0"
     inkscape:pageshadow="2"
     inkscape:zoom="2.1717867"
     inkscape:cx="-70.752188"
     inkscape:cy="93.450885"
     inkscape:document-units="mm"
     inkscape:current-layer="layer1"
     inkscape:document-rotation="0"
     showgrid="true"
     units="px"
     inkscape:pagecheckerboard="true"
     inkscape:window-width="1920"
     inkscape:window-height="1016"
     inkscape:window-x="0"
     inkscape:window-y="33"
     inkscape:window-maximized="1">
    <inkscape:grid
       type="xygrid"
       id="grid833" />
  </sodipodi:namedview>
  <metadata
     id="metadata5">
    <rdf:RDF>
      <cc:Work
         rdf:about="">
        <dc:format>image/svg+xml</dc:format>
        <dc:type
           rdf:resource="http://purl.org/dc/dcmitype/StillImage" />
        <dc:title></dc:title>
      </cc:Work>
    </rdf:RDF>
  </metadata>
  <g
     inkscape:label="Ebene 1"
     inkscape:groupmode="layer"
     id="layer1">
    <path
       style="fill:#ffffff;fill-opacity:1;stroke:none;stroke-width:0;stroke-linecap:butt;stroke-linejoin:miter;stroke-miterlimit:4;stroke-dasharray:none;stroke-opacity:1"
       d="M 6.6145832,23.8125 V 2.6458333 C 6.6145833,1.3229167 7.9375,0 9.2604166,0 H 20.372917 l 6.085416,6.0854167 0,17.7270833 c 0,1.322917 -1.322916,2.645833 -2.645833,2.645833 H 9.2604166 c -1.3229166,0 -2.6458333,-1.322916 -2.6458334,-2.645833 z"
       id="path837"
       sodipodi:nodetypes="ccccccccc" />
    <path
       style="fill:#ff1b0e;fill-opacity:1;stroke:none;stroke-width:0;stroke-linecap:butt;stroke-linejoin:miter;stroke-miterlimit:4;stroke-dasharray:none;stroke-opacity:1"
       d="m 20.372917,0 6.085416,6.0854167 H 23.01875 c -1.322916,0 -2.645832,-1.3229167 -2.645833,-2.6458334 z"
       id="path841"
       sodipodi:nodetypes="ccccc" />
    <path
       style="fill:#ff1b0e;fill-opacity:1;stroke:none;stroke-width:0;stroke-linecap:butt;stroke-linejoin:miter;stroke-miterlimit:4;stroke-dasharray:none;stroke-opacity:1"
       d="m 1.3229166,18.520833 v 5.820833 l 0.79375,0.79375 H 17.197916 v -5.820833 l -0.79375,-0.79375 z"
       id="path1007" />
    <g
       id="g847">
      <g
         id="g1010">
        <path
           style="fill:#000000;fill-opacity:0.0666667;stroke:none;stroke-width:0.264583px;stroke-linecap:butt;stroke-linejoin:miter;stroke-opacity:1"
           d="m 1.3229176,24.341667 0.79375,0.79375 H 17.197917 v -5.820833 l -0.79375,-0.793751 v 5.820834 z"
           id="path1003" />
      </g>
    </g>
    <path
       style="fill:#000000;fill-opacity:0.0666667;stroke:none;stroke-width:0;stroke-linecap:butt;stroke-linejoin:miter;stroke-miterlimit:4;stroke-dasharray:none;stroke-opacity:1"
       d="m 6.6145832,23.8125 c 10e-8,1.322917 1.3229168,2.116667 2.6458334,2.116666 l 14.5520834,1e-6 c 0.79375,0 2.116667,-1.058334 2.116667,-2.116667 V 6.0854167 l -0.264584,-0.79375 0.79375,0.7937499 V 23.8125 c 0,1.322917 -1.322916,2.645833 -2.645833,2.645833 H 9.2604166 c -1.3229166,0 -2.6458333,-1.322916 -2.6458334,-2.645833 z"
       id="path1027"
       sodipodi:nodetypes="ccccccccccc" />
    <path
       style="fill:#ffffff;fill-opacity:1;stroke:none;stroke-width:0;stroke-linecap:butt;stroke-linejoin:miter;stroke-miterlimit:4;stroke-dasharray:none;stroke-opacity:1"
       d="m 21.166666,0.79374999 h 3.175 C 25.4,0.79375 25.664583,1.3229167 25.664583,2.1166666 v 3.175 z"
       id="path1029"
       sodipodi:nodetypes="ccccc" />
    <path
       sodipodi:nodetypes="scccscccscccccssscacccsccccccccccccccccccccaccccccccc"
       inkscape:connector-curvature="0"
       d="m 9.4788523,16.279591 c -0.8008886,-0.800889 0.065611,-1.901425 2.4171877,-3.07007 l 1.479644,-0.735319 0.576439,-1.261238 c 0.317044,-0.693677 0.790223,-1.8255357 1.051516,-2.5152271 L 15.478722,7.4437406 15.151337,6.5157157 C 14.74879,5.374621 14.605243,3.6598424 14.860648,3.0432405 15.206598,2.2080444 16.33977,2.2937366 16.788391,3.1890209 17.138762,3.888235 17.102943,5.154492 16.68762,6.7514318 l -0.340492,1.3092127 0.299917,0.5091373 c 0.164957,0.2800244 0.646785,0.9449255 1.070735,1.4775512 l 0.796794,0.991136 0.991496,-0.129385 c 3.149811,-0.41102 4.228652,0.287545 4.228652,1.289151 0,1.264107 -2.473274,1.368448 -4.550197,-0.09029 -0.467313,-0.328222 -0.788228,-0.654269 -0.788228,-0.654269 0,0 -1.301121,0.264882 -1.941733,0.437548 -0.66125,0.178228 -0.991147,0.289849 -1.959769,0.616798 0,0 -0.339853,0.49354 -0.561314,0.852334 -0.82392,1.33486 -1.785933,2.441104 -2.472963,2.843734 -0.769224,0.450798 -1.575639,0.481526 -1.9816614,0.0755 z M 10.735724,15.83058 c 0.450194,-0.278238 1.361395,-1.355946 1.992153,-2.356186 l 0.255377,-0.404974 -1.162811,0.584654 c -1.795952,0.902987 -2.6175635,1.754045 -2.1903293,2.268829 0.2400045,0.289184 0.5271163,0.265208 1.1056103,-0.09231 z m 11.665719,-3.274491 c 0.44033,-0.308422 0.37641,-0.929944 -0.121407,-1.180531 -0.387422,-0.195021 -0.699682,-0.235091 -1.706119,-0.220235 -0.61847,0.04217 -1.612984,0.16681 -1.781537,0.204729 0,0 0.546347,0.377592 0.788907,0.516384 0.322903,0.184426 1.107582,0.52677 1.680475,0.702129 0.565112,0.172972 0.891997,0.154735 1.139681,-0.02249 z M 17.710809,10.606528 C 17.444319,10.326395 16.991179,9.7417143 16.703838,9.3072404 16.328032,8.8143826 16.139583,8.4666667 16.139583,8.4666667 c 0,0 -0.274682,0.8834965 -0.500033,1.4151536 l -0.703063,1.7377877 -0.203839,0.39418 c 0,0 1.083682,-0.35532 1.635047,-0.49934 0.58398,-0.152537 1.769186,-0.385596 1.769186,-0.385596 z M 16.199197,4.5445761 c 0.06797,-0.5704181 0.09683,-1.1399901 -0.08646,-1.427211 -0.508346,-0.5557216 -1.121907,-0.092298 -1.017977,1.2288981 0.03498,0.4444587 0.145383,1.2042447 0.292999,1.6725427 l 0.268396,0.8514378 0.1889,-0.6412764 c 0.103904,-0.3527026 0.263256,-1.1106797 0.354133,-1.6843912 z"
       style="fill:#ff1b0e;fill-opacity:1;stroke-width:0.145467"
       id="path2697" />
    <text
       xml:space="preserve"
       style="font-size:10.5833px;line-height:2;font-family:sans-serif;fill:#f2f2f2;stroke-width:0.264583"
       x="2.5259671"
       y="23.629299"
       id="text1155"><tspan
         sodipodi:role="line"
         id="tspan1153"
         x="2.5259671"
         y="23.629299"
         style="font-style:normal;font-variant:normal;font-weight:600;font-stretch:normal;font-size:6.08542px;font-family:'Futura PT';-inkscape-font-specification:'Futura PT, Semi-Bold';font-variant-ligatures:normal;font-variant-caps:normal;font-variant-numeric:normal;font-variant-east-asian:normal;fill:#ffffff;fill-opacity:1;stroke-width:0.264583">PDF</tspan></text>
  </g>
</svg>
