<?xml version="1.0" encoding="UTF-8" standalone="no"?>
<!-- Generator: Adobe Illustrator 24.3.0, SVG Export Plug-In . SVG Version: 6.00 Build 0)  -->

<svg
   version="1.1"
   id="Ebene_1"
   x="0px"
   y="0px"
   viewBox="0 0 801.25951 177.97584"
   xml:space="preserve"
   sodipodi:docname="SPD_Logo_Rot.svg"
   width="801.25952"
   height="177.97583"
   inkscape:version="1.2.2 (b0a8486541, 2022-12-01)"
   xmlns:inkscape="http://www.inkscape.org/namespaces/inkscape"
   xmlns:sodipodi="http://sodipodi.sourceforge.net/DTD/sodipodi-0.dtd"
   xmlns="http://www.w3.org/2000/svg"
   xmlns:svg="http://www.w3.org/2000/svg"><defs
   id="defs61"><rect
     x="434.22287"
     y="-143.56229"
     width="357.84491"
     height="220.64745"
     id="rect281" /><rect
     x="451.19574"
     y="-121.63898"
     width="285.00296"
     height="152.04872"
     id="rect275" /></defs><sodipodi:namedview
   id="namedview59"
   pagecolor="#ffffff"
   bordercolor="#666666"
   borderopacity="1.0"
   inkscape:showpageshadow="2"
   inkscape:pageopacity="0.0"
   inkscape:pagecheckerboard="0"
   inkscape:deskcolor="#d1d1d1"
   showgrid="false"
   inkscape:zoom="1.4140204"
   inkscape:cx="373.04977"
   inkscape:cy="131.89343"
   inkscape:window-width="1920"
   inkscape:window-height="1137"
   inkscape:window-x="0"
   inkscape:window-y="0"
   inkscape:window-maximized="1"
   inkscape:current-layer="Ebene_1" />
<style
   type="text/css"
   id="style2">
	.st0{fill:#FFFFFF;}
	.st1{fill:#E3000F;}
</style>
<g
   id="g10">
	<path
   class="st1"
   d="M 108.7,151.1 C 95.4,161.6 77.6,166.9 60.5,166.9 39.1,166.9 17.9,161.7 0,147.1 l 19.8,-33.2 c 11,9 24.1,17.3 39.2,17.3 10.4,0 20.5,-3.1 20.5,-14.2 0,-11.6 -16.4,-12.2 -25.9,-14.6 C 33.1,97.1 7.6,90.2 7.6,53.2 7.6,21 32.2,0 66.2,0 c 17.1,0 38.9,7.9 54,15.9 l -18.8,31.3 c -8.7,-5.6 -22.7,-8.9 -29.3,-8.9 -8.1,0 -18.5,2.3 -18.5,11.1 0,9.3 10.3,11 19.6,13.5 0,0 11.5,2.5 16.3,4.1 21.1,6.9 36.8,14.3 36.8,42.4 0,15.7 -4.1,31 -17.6,41.7"
   id="path4" />
	<path
   class="st1"
   d="m 207.4,3.2 h -70.3 v 158.9 h 45.3 v -52.4 h 23 c 40,0 53,-23 53,-54.1 0,-23.1 -10.6,-52.4 -51,-52.4 z m -21.6,71.7 h -3.5 V 37.8 h 3.5 c 16.1,0 29.8,0 29.8,18.6 0,19.4 -14.8,18.5 -29.8,18.5 z"
   id="path6" />
	<path
   class="st1"
   d="m 335.5,3.8 h -67.1 v 158.9 h 67.1 c 43.9,0 71,-35.1 71,-79.7 0,-44.6 -26.9,-79.2 -71,-79.2 z m -17.4,121.9 h -4.9 V 40.9 h 5.3 c 26.5,0 42.6,17.3 42.6,41.6 0,28.8 -18.4,43.2 -43,43.2 z"
   id="path8" />
</g>

<text
   xml:space="preserve"
   id="text273"
   style="font-style:normal;font-variant:normal;font-weight:normal;font-stretch:normal;font-size:40px;line-height:1.25;font-family:'SPD TheSans';-inkscape-font-specification:'SPD TheSans';white-space:pre;shape-inside:url(#rect275);fill:#000000;fill-opacity:1;stroke:none" /><g
   aria-label="Dudweiler
Herrensohr
Jägersfreude"
   transform="translate(13.436864,147.0983)"
   id="text279"
   style="font-size:64px;line-height:0.84;white-space:pre;shape-inside:url(#rect281)"><path
     d="m 465.58266,-120.14649 q 0,-3.584 -0.768,-6.272 -0.704,-2.752 -2.304,-4.608 -1.6,-1.92 -4.224,-2.88 -2.56,-1.024 -6.208,-1.024 -1.472,0 -2.752,0.064 -1.28,0.064 -2.304,0.128 v 29.12 q 0.896,0.128 2.112,0.256 1.216,0.064 2.432,0.064 3.072,0 5.632,-0.896 2.56,-0.896 4.416,-2.688 1.92,-1.856 2.944,-4.672 1.024,-2.816 1.024,-6.592 z m 8.96,-0.64 q 0,5.44 -1.728,9.728 -1.664,4.224 -4.864,7.104 -3.136,2.816 -7.552,4.288001 -4.352,1.472 -9.664,1.472 -2.816,0 -6.336,-0.128 -3.456,-0.128 -5.696,-0.192 v -43.072001 q 3.712,-0.128 7.04,-0.192 3.392,-0.128 6.912,-0.128 5.12,0 9.152,1.216 4.032,1.152 6.848,3.712 2.88,2.56 4.352,6.592 1.536,4.032 1.536,9.6 z"
     style="font-weight:bold;font-family:'SPD TheSans';-inkscape-font-specification:'SPD TheSans Bold';fill:#e3000f"
     id="path1012" /><path
     d="m 501.29464,-98.450489 q 0,-1.472 0.064,-3.008001 0.128,-1.6 0.32,-2.688 h -0.064 q -1.536,2.944 -4.288,4.672001 -2.752,1.664 -6.528,1.664 -2.624,0 -4.48,-0.768 -1.792,-0.768 -2.944,-2.112001 -1.088,-1.408 -1.6,-3.2 -0.448,-1.856 -0.448,-4.032 v -22.336 h 8.128 v 20.352 q 0,2.624 0.896,3.968 0.896,1.28 3.072,1.28 1.536,0 2.88,-0.768 1.344,-0.832 2.368,-2.24 1.024,-1.472 1.536,-3.328 0.576,-1.856 0.576,-3.904 v -15.36 h 8.192 v 31.808001 z"
     style="font-weight:bold;font-family:'SPD TheSans';-inkscape-font-specification:'SPD TheSans Bold';fill:#e3000f"
     id="path1014" /><path
     d="m 536.55862,-123.85849 q -1.152,-0.256 -2.24,-0.384 -1.024,-0.128 -2.048,-0.128 -3.712,0 -5.888,2.624 -2.112,2.56 -2.112,8.192 0,9.024 5.44001,9.024 1.53599,0 2.81599,-0.832 1.28001,-0.832 2.176,-2.304 0.896,-1.472 1.344,-3.328 0.512,-1.92 0.512,-3.968 z m 0.512,25.408001 q 0,-1.216 0.064,-2.624001 0.12799,-1.408 0.31999,-2.688 h -0.12799 q -1.34401,2.752 -3.96801,4.416001 -2.62399,1.6 -6.07999,1.6 -5.69601,0 -8.64,-3.968001 -2.94401,-3.968 -2.94401,-10.944 0,-4.032 1.15201,-7.36 1.15199,-3.328 3.32799,-5.76 2.17601,-2.432 5.312,-3.712 3.136,-1.344 7.04,-1.344 1.08801,0 2.048,0.064 0.96,0.064 1.984,0.192 v -14.592 h 8.12801 v 46.720001 z"
     style="font-weight:bold;font-family:'SPD TheSans';-inkscape-font-specification:'SPD TheSans Bold';fill:#e3000f"
     id="path1016" /><path
     d="m 589.61463,-98.450489 h -9.152 l -4.544,-14.464001 q -0.512,-1.92 -0.96,-3.776 -0.448,-1.92 -0.768,-3.648 h -0.064 q -0.384,1.856 -0.896,3.776 -0.448,1.92 -1.152,4.608 l -3.968,13.504001 h -8.768 l -9.536,-31.808001 h 9.024 l 3.584,13.248 q 0,0 0.896,3.712 0.96,3.712 1.28,5.376 h 0.064 q 0.448,-2.24 0.96,-4.608 0.576,-2.432 1.152,-4.544 l 3.968,-13.184 h 8.128 l 4.032,13.184 q 0.768,2.752 1.28,4.928 0.576,2.176 0.96,4.288 h 0.128 q 0.32,-2.048 0.832,-4.096 0.512,-2.112 1.28,-5.056 l 3.712,-13.248 h 8.32 z"
     style="font-weight:bold;font-family:'SPD TheSans';-inkscape-font-specification:'SPD TheSans Bold';fill:#e3000f"
     id="path1018" /><path
     d="m 622.4466,-118.09849 q 0.064,-3.264 -1.408,-4.992 -1.472,-1.792 -4.096,-1.792 -2.56,0 -4.288,1.792 -1.728,1.792 -1.984,4.992 z m 8.128,0.704 q 0,1.536 -0.128,2.88 -0.064,1.344 -0.128,1.92 h -19.712 q 0,8.448 8.448,8.448 4.608,0 9.6,-1.664 l 0.832,6.080001 q -2.688,0.896 -5.696,1.408 -2.944,0.512 -5.696,0.512 -7.744,0 -11.776,-3.968001 -4.032,-4.032 -4.032,-12.288 0,-3.584 1.024,-6.656 1.024,-3.072 3.008,-5.376 1.984,-2.304 4.8,-3.52 2.816,-1.28 6.272,-1.28 3.392,0 5.888,1.024 2.56,1.024 4.16,2.88 1.6,1.792 2.368,4.288 0.768,2.432 0.768,5.312 z"
     style="font-weight:bold;font-family:'SPD TheSans';-inkscape-font-specification:'SPD TheSans Bold';fill:#e3000f"
     id="path1020" /><path
     d="m 637.42259,-98.450489 v -31.808001 h 8.192 v 31.808001 z m 9.216,-41.472001 q 0,2.048 -1.536,3.52 -1.472,1.408 -3.584,1.408 -2.112,0 -3.584,-1.408 -1.472,-1.472 -1.472,-3.52 0,-2.048 1.472,-3.52 1.472,-1.472 3.584,-1.472 2.112,0 3.584,1.472 1.536,1.408 1.536,3.52 z"
     style="font-weight:bold;font-family:'SPD TheSans';-inkscape-font-specification:'SPD TheSans Bold';fill:#e3000f"
     id="path1022" /><path
     d="m 654.44664,-98.450489 v -46.720001 h 8.192 v 46.720001 z"
     style="font-weight:bold;font-family:'SPD TheSans';-inkscape-font-specification:'SPD TheSans Bold';fill:#e3000f"
     id="path1024" /><path
     d="m 689.39069,-118.09849 q 0.064,-3.264 -1.408,-4.992 -1.472,-1.792 -4.096,-1.792 -2.56,0 -4.288,1.792 -1.728,1.792 -1.984,4.992 z m 8.128,0.704 q 0,1.536 -0.128,2.88 -0.064,1.344 -0.128,1.92 h -19.712 q 0,8.448 8.448,8.448 4.608,0 9.6,-1.664 l 0.832,6.080001 q -2.688,0.896 -5.696,1.408 -2.944,0.512 -5.696,0.512 -7.744,0 -11.776,-3.968001 -4.032,-4.032 -4.032,-12.288 0,-3.584 1.024,-6.656 1.024,-3.072 3.008,-5.376 1.984,-2.304 4.8,-3.52 2.816,-1.28 6.272,-1.28 3.392,0 5.888,1.024 2.56,1.024 4.16,2.88 1.6,1.792 2.368,4.288 0.768,2.432 0.768,5.312 z"
     style="font-weight:bold;font-family:'SPD TheSans';-inkscape-font-specification:'SPD TheSans Bold';fill:#e3000f"
     id="path1026" /><path
     d="m 721.39068,-122.89849 q -8.832,-1.728 -8.832,11.456 v 12.992001 h -8.192 v -31.808001 h 7.744 q 0,1.28 -0.192,3.072 -0.128,1.728 -0.384,3.328 h 0.128 q 0.64,-1.6 1.472,-2.944 0.896,-1.344 2.112,-2.304 1.28,-1.024 2.88,-1.472 1.664,-0.512 3.648,-0.32 z"
     style="font-weight:bold;font-family:'SPD TheSans';-inkscape-font-specification:'SPD TheSans Bold';fill:#e3000f"
     id="path1028" /><path
     d="m 465.32666,-41.818478 v -18.752 h -18.304 v 18.752 h -8.32 v -43.2 h 8.32 v 17.28 h 18.304 v -17.28 h 8.384 v 43.2 z"
     style="font-weight:bold;font-family:'SPD TheSans';-inkscape-font-specification:'SPD TheSans Bold';fill:#e3000f"
     id="path1030" /><path
     d="m 500.46271,-61.466478 q 0.064,-3.264 -1.408,-4.992 -1.472,-1.792 -4.096,-1.792 -2.56,0 -4.288,1.792 -1.728,1.792 -1.984,4.992 z m 8.128,0.704 q 0,1.536 -0.128,2.88 -0.064,1.344 -0.128,1.92 h -19.712 q 0,8.448 8.448,8.448 4.608,0 9.6,-1.664 l 0.832,6.08 q -2.688,0.896 -5.696,1.408 -2.944,0.512 -5.696,0.512 -7.744,0 -11.776,-3.968 -4.032,-4.032 -4.032,-12.288 0,-3.584 1.024,-6.656 1.024,-3.072 3.008,-5.376 1.984,-2.304 4.8,-3.52 2.816,-1.28 6.272,-1.28 3.392,0 5.888,1.024 2.56,1.024 4.16,2.88 1.6,1.792 2.368,4.288 0.768,2.432 0.768,5.312 z"
     style="font-weight:bold;font-family:'SPD TheSans';-inkscape-font-specification:'SPD TheSans Bold';fill:#e3000f"
     id="path1032" /><path
     d="m 532.46271,-66.266478 q -8.832,-1.728 -8.832,11.456 v 12.992 h -8.192 v -31.808 h 7.744 q 0,1.28 -0.192,3.072 -0.128,1.728 -0.384,3.328 h 0.128 q 0.64,-1.6 1.472,-2.944 0.896,-1.344 2.112,-2.304 1.28,-1.024 2.88,-1.472 1.664,-0.512 3.648,-0.32 z"
     style="font-weight:bold;font-family:'SPD TheSans';-inkscape-font-specification:'SPD TheSans Bold';fill:#e3000f"
     id="path1034" /><path
     d="m 555.18268,-66.266478 q -8.832,-1.728 -8.832,11.456 v 12.992 h -8.192 v -31.808 h 7.744 q 0,1.28 -0.192,3.072 -0.128,1.728 -0.384,3.328 h 0.128 q 0.64,-1.6 1.472,-2.944 0.896,-1.344 2.112,-2.304 1.28,-1.024 2.88,-1.472 1.664,-0.512 3.648,-0.32 z"
     style="font-weight:bold;font-family:'SPD TheSans';-inkscape-font-specification:'SPD TheSans Bold';fill:#e3000f"
     id="path1036" /><path
     d="m 578.79865,-61.466478 q 0.064,-3.264 -1.408,-4.992 -1.472,-1.792 -4.096,-1.792 -2.56,0 -4.288,1.792 -1.728,1.792 -1.984,4.992 z m 8.128,0.704 q 0,1.536 -0.128,2.88 -0.064,1.344 -0.128,1.92 h -19.712 q 0,8.448 8.448,8.448 4.608,0 9.6,-1.664 l 0.832,6.08 q -2.688,0.896 -5.696,1.408 -2.944,0.512 -5.696,0.512 -7.744,0 -11.776,-3.968 -4.032,-4.032 -4.032,-12.288 0,-3.584 1.024,-6.656 1.024,-3.072 3.008,-5.376 1.984,-2.304 4.8,-3.52 2.816,-1.28 6.272,-1.28 3.392,0 5.888,1.024 2.56,1.024 4.16,2.88 1.6,1.792 2.368,4.288 0.768,2.432 0.768,5.312 z"
     style="font-weight:bold;font-family:'SPD TheSans';-inkscape-font-specification:'SPD TheSans Bold';fill:#e3000f"
     id="path1038" /><path
     d="m 613.29464,-41.818478 v -20.352 q 0,-2.624 -0.896,-3.904 -0.896,-1.344 -3.072,-1.344 -1.536,0 -2.88,0.832 -1.344,0.768 -2.368,2.24 -0.96,1.408 -1.536,3.264 -0.576,1.856 -0.576,3.904 v 15.36 h -8.192 v -31.808 h 7.744 q 0,1.28 -0.128,2.944 -0.128,1.6 -0.32,2.752 h 0.064 q 1.472,-2.88 4.224,-4.608 2.816,-1.728 6.592,-1.728 2.624,0 4.416,0.768 1.856,0.768 2.944,2.176 1.152,1.344 1.6,3.2 0.512,1.792 0.512,3.968 v 22.336 z"
     style="font-weight:bold;font-family:'SPD TheSans';-inkscape-font-specification:'SPD TheSans Bold';fill:#e3000f"
     id="path1040" /><path
     d="m 650.09459,-51.546478 q 0,2.24 -0.896,4.16 -0.832,1.856 -2.624,3.264 -1.728,1.408 -4.352,2.176 -2.56,0.768 -5.952,0.768 -1.92,0 -3.84,-0.256 -1.92,-0.192 -3.456,-0.576 l 0.448,-6.784 q 1.472,0.576 3.456,0.96 1.984,0.32 3.776,0.32 2.368,0 3.648,-0.832 1.28,-0.896 1.28,-2.432 0,-1.28 -0.896,-2.048 -0.832,-0.832 -2.432,-1.472 -1.536,-0.64 -3.328,-1.344 -1.792,-0.704 -3.2,-1.728 -1.408,-1.024 -2.304,-2.752 -0.896,-1.728 -0.896,-4.224 0,-2.112 0.832,-3.904 0.832,-1.792 2.496,-3.136 1.664,-1.408 4.16,-2.176 2.56,-0.768 5.888,-0.768 1.344,0 2.816,0.192 1.536,0.128 3.072,0.384 l -0.448,6.464 q -1.408,-0.384 -2.88,-0.64 -1.472,-0.256 -2.944,-0.256 -2.24,0 -3.456,0.832 -1.152,0.832 -1.152,2.24 0,1.216 0.832,2.048 0.896,0.768 2.496,1.408 1.6,0.64 3.392,1.408 1.856,0.768 3.264,1.856 1.408,1.024 2.304,2.688 0.896,1.664 0.896,4.16 z"
     style="font-weight:bold;font-family:'SPD TheSans';-inkscape-font-specification:'SPD TheSans Bold';fill:#e3000f"
     id="path1042" /><path
     d="m 677.42258,-57.690478 q 0,-4.672 -1.856,-7.168 -1.856,-2.496 -5.184,-2.496 -1.664,0 -3.008,0.64 -1.344,0.576 -2.304,1.792 -0.896,1.216 -1.408,3.008 -0.512,1.792 -0.512,4.16 0,9.6 7.104,9.6 3.264,0 5.184,-2.368 1.984,-2.432 1.984,-7.168 z m 8.448,-0.768 q 0,3.712 -1.088,6.848 -1.088,3.136 -3.2,5.504 -2.048,2.368 -5.12,3.648 -3.008,1.28 -6.784,1.28 -3.456,0 -6.208,-0.96 -2.752,-0.96 -4.736,-2.88 -1.92,-1.984 -3.008,-4.928 -1.024,-3.008 -1.024,-7.04 0,-3.712 1.088,-6.848 1.088,-3.136 3.136,-5.504 2.112,-2.368 5.12,-3.648 3.072,-1.28 6.848,-1.28 7.232,0 11.072,4.032 3.904,4.032 3.904,11.776 z"
     style="font-weight:bold;font-family:'SPD TheSans';-inkscape-font-specification:'SPD TheSans Bold';fill:#e3000f"
     id="path1044" /><path
     d="m 711.91854,-41.818478 v -20.352 q 0,-2.624 -0.896,-3.904 -0.896,-1.344 -3.072,-1.344 -1.536,0 -2.88,0.832 -1.344,0.768 -2.368,2.24 -0.96,1.408 -1.536,3.328 -0.576,1.856 -0.576,3.904 v 15.296 h -8.192 v -46.72 h 8.192 v 13.696 q 0,1.664 -0.128,3.392 -0.128,1.728 -0.448,3.072 h 0.128 q 1.408,-2.752 4.096,-4.288 2.752,-1.6 6.336,-1.6 2.624,0 4.416,0.768 1.856,0.768 2.944,2.176 1.152,1.344 1.6,3.2 0.512,1.792 0.512,3.968 v 22.336 z"
     style="font-weight:bold;font-family:'SPD TheSans';-inkscape-font-specification:'SPD TheSans Bold';fill:#e3000f"
     id="path1046" /><path
     d="m 745.96649,-66.266478 q -8.832,-1.728 -8.832,11.456 v 12.992 h -8.192 v -31.808 h 7.744 q 0,1.28 -0.192,3.072 -0.128,1.728 -0.384,3.328 h 0.128 q 0.64,-1.6 1.472,-2.944 0.896,-1.344 2.112,-2.304 1.28,-1.024 2.88,-1.472 1.664,-0.512 3.648,-0.32 z"
     style="font-weight:bold;font-family:'SPD TheSans';-inkscape-font-specification:'SPD TheSans Bold';fill:#e3000f"
     id="path1048" /><path
     d="m 452.07866,2.5255337 q 0,2.816 -0.704,5.184 -0.64,2.3040003 -2.112,4.0320003 -1.472,1.728 -3.84,2.688 -2.304,0.96 -5.568,0.96 -1.536,0 -2.944,-0.128 -1.344,-0.128 -2.688,-0.384 V 7.7095337 q 0.768,0.256 1.984,0.448 1.28,0.192 2.496,0.192 2.496,0 3.712,-1.344 1.28,-1.344 1.28,-4.608 V -28.386466 h 8.384 z"
     style="font-weight:bold;font-family:'SPD TheSans';-inkscape-font-specification:'SPD TheSans Bold';fill:#e3000f"
     id="path1050" /><path
     d="m 477.23066,0.66953374 q -3.008,0 -5.056,0.38399996 -2.048,0.32 -3.264,0.96 -1.152,0.64 -1.664,1.536 -0.512,0.832 -0.512,1.92 0,1.6 1.024,2.688 1.088,1.024 2.816,1.024 1.408,0 2.624,-0.64 1.28,-0.64 2.176,-1.728 0.896,-1.088 1.344,-2.432 0.512,-1.344 0.512,-2.752 z m 0.64,14.14400026 q 0,-1.536 0.064,-2.88 0.064,-1.344 0.256,-2.4960003 l -0.064,-0.064 q -1.152,2.7520003 -3.904,4.4160003 -2.752,1.664 -6.272,1.664 -4.224,0 -6.656,-2.56 -2.432,-2.56 -2.432,-6.5280003 0,-2.816 1.28,-4.864 1.28,-2.11199996 3.648,-3.456 2.432,-1.408 5.824,-2.048 3.392,-0.704 7.616,-0.704 v -1.344 q 0,-2.816 -1.344,-4.0959997 -1.28,-1.28 -4.352,-1.28 -2.112,0 -4.736,0.576 -2.56,0.576 -4.928,1.5359997 l -1.28,-6.2079997 q 2.88,-0.96 6.016,-1.536 3.136,-0.64 5.888,-0.64 3.648,0 6.144,0.768 2.496,0.704 3.968,2.176 1.536,1.408 2.176,3.456 0.64,2.0479997 0.64,4.7999997 v 13.12 q 0,2.112 0.064,4.2240003 0.064,2.112 0.192,3.968 z m -6.656,-41.472 q 0,1.856 -1.28,3.136 -1.28,1.28 -3.136,1.28 -1.856,0 -3.136,-1.28 -1.28,-1.28 -1.28,-3.136 0,-1.856 1.28,-3.136 1.28,-1.28 3.136,-1.28 1.856,0 3.136,1.28 1.28,1.28 1.28,3.136 z m 12.992,0 q 0,1.856 -1.28,3.136 -1.28,1.28 -3.136,1.28 -1.856,0 -3.136,-1.28 -1.28,-1.28 -1.28,-3.136 0,-1.856 1.28,-3.136 1.28,-1.28 3.136,-1.28 1.856,0 3.136,1.28 1.28,1.28 1.28,3.136 z"
     style="font-weight:bold;font-family:'SPD TheSans';-inkscape-font-specification:'SPD TheSans Bold';fill:#e3000f"
     id="path1052" /><path
     d="m 519.02267,-10.594466 q 0.704,1.7919997 0.704,3.7119997 0,2.624 -0.896,4.8 -0.832,2.11200004 -2.56,3.712 -1.664,1.6 -4.224,2.496 -2.56,0.832 -6.016,0.832 -0.576,0 -1.152,0 -0.576,0 -1.088,-0.064 -1.152,0.896 -1.152,1.92 0,0.896 0.832,1.408 0.896,0.448 3.712,0.576 l 4.48,0.128 q 5.568,0.192 8.384,2.5600003 2.88,2.304 2.88,6.912 0,2.624 -1.216,4.864 -1.152,2.304 -3.392,3.968 -2.24,1.728 -5.44,2.688 -3.136,0.96 -7.168,0.96 -6.464,0 -10.24,-2.368 -3.712,-2.304 -3.712,-6.912 0,-2.432 1.408,-4.544 1.408,-2.048 3.648,-3.456 -2.752,-1.6 -2.752,-4.7360003 0,-3.712 3.776,-5.824 -2.496,-1.472 -3.648,-3.71199996 -1.152,-2.30400004 -1.152,-5.05600004 0,-2.496 0.832,-4.6719997 0.896,-2.24 2.56,-3.84 1.728,-1.6 4.288,-2.496 2.56,-0.96 6.016,-0.96 2.752,0 5.184,0.704 h 10.688 v 6.4 z m -15.872,25.664 v 0.064 q -1.536,1.024 -2.304,2.304 -0.768,1.28 -0.768,2.56 0,2.24 1.792,3.52 1.856,1.28 5.12,1.28 3.968,0 5.888,-1.536 1.92,-1.536 1.92,-3.776 0,-1.728 -1.216,-2.88 -1.152,-1.152 -4.224,-1.28 l -4.864,-0.128 z m 8.768,-21.3120003 q 0,-2.432 -1.472,-3.9679997 -1.408,-1.536 -4.096,-1.536 -2.688,0 -4.16,1.536 -1.408,1.5359997 -1.408,3.9679997 0,2.432 1.408,3.968 1.472,1.53600004 4.16,1.53600004 2.688,0 4.096,-1.53600004 1.472,-1.536 1.472,-3.968 z"
     style="font-weight:bold;font-family:'SPD TheSans';-inkscape-font-specification:'SPD TheSans Bold';fill:#e3000f"
     id="path1054" /><path
     d="m 546.86273,-4.8344663 q 0.064,-3.264 -1.408,-4.992 -1.472,-1.7919997 -4.096,-1.7919997 -2.56,0 -4.288,1.7919997 -1.728,1.792 -1.984,4.992 z m 8.128,0.704 q 0,1.536 -0.128,2.88 -0.064,1.34400004 -0.128,1.92000004 h -19.712 q 0,8.44799996 8.448,8.44799996 4.608,0 9.6,-1.664 l 0.832,6.0800003 q -2.688,0.896 -5.696,1.408 -2.944,0.512 -5.696,0.512 -7.744,0 -11.776,-3.968 -4.032,-4.0320003 -4.032,-12.28800026 0,-3.58400004 1.024,-6.65600004 1.024,-3.0719997 3.008,-5.3759997 1.984,-2.304 4.8,-3.52 2.816,-1.28 6.272,-1.28 3.392,0 5.888,1.024 2.56,1.024 4.16,2.88 1.6,1.792 2.368,4.2879997 0.768,2.432 0.768,5.312 z"
     style="font-weight:bold;font-family:'SPD TheSans';-inkscape-font-specification:'SPD TheSans Bold';fill:#e3000f"
     id="path1056" /><path
     d="m 578.86273,-9.6344663 q -8.832,-1.7279997 -8.832,11.456 V 14.813534 h -8.192 v -31.808 h 7.744 q 0,1.28 -0.192,3.072 -0.128,1.728 -0.384,3.328 h 0.128 q 0.64,-1.6 1.472,-2.944 0.896,-1.344 2.112,-2.304 1.28,-1.024 2.88,-1.472 1.664,-0.512 3.648,-0.32 z"
     style="font-weight:bold;font-family:'SPD TheSans';-inkscape-font-specification:'SPD TheSans Bold';fill:#e3000f"
     id="path1058" /><path
     d="m 604.3347,5.0855337 q 0,2.24 -0.896,4.16 -0.832,1.8560003 -2.624,3.2640003 -1.728,1.408 -4.352,2.176 -2.56,0.768 -5.952,0.768 -1.92,0 -3.84,-0.256 -1.92,-0.192 -3.456,-0.576 l 0.448,-6.7840003 q 1.472,0.576 3.456,0.96 1.984,0.32 3.776,0.32 2.368,0 3.648,-0.832 1.28,-0.896 1.28,-2.432 0,-1.28 -0.896,-2.048 -0.832,-0.832 -2.432,-1.472 -1.536,-0.64 -3.328,-1.34399996 -1.792,-0.704 -3.2,-1.728 -1.408,-1.02400004 -2.304,-2.75200004 -0.896,-1.728 -0.896,-4.224 0,-2.112 0.832,-3.9039997 0.832,-1.792 2.496,-3.136 1.664,-1.408 4.16,-2.176 2.56,-0.768 5.888,-0.768 1.344,0 2.816,0.192 1.536,0.128 3.072,0.384 l -0.448,6.464 q -1.408,-0.384 -2.88,-0.64 -1.472,-0.256 -2.944,-0.256 -2.24,0 -3.456,0.832 -1.152,0.8319997 -1.152,2.2399997 0,1.216 0.832,2.048 0.896,0.768 2.496,1.408 1.6,0.64 3.392,1.408 1.856,0.768 3.264,1.856 1.408,1.02400004 2.304,2.68800004 0.896,1.66399996 0.896,4.15999996 z"
     style="font-weight:bold;font-family:'SPD TheSans';-inkscape-font-specification:'SPD TheSans Bold';fill:#e3000f"
     id="path1060" /><path
     d="m 630.19069,-25.186466 q -0.512,-0.128 -1.664,-0.32 -1.152,-0.256 -2.432,-0.256 -2.624,0 -3.84,1.536 -1.216,1.472 -1.216,4.8 v 2.432 h 7.424 v 6.336 h -7.424 v 25.472 h -8.128 v -25.472 h -5.568 v -6.336 h 5.568 v -1.856 q 0,-6.912 3.264,-10.24 3.328,-3.328 9.728,-3.328 1.536,0 2.88,0.192 1.408,0.128 1.984,0.256 z"
     style="font-weight:bold;font-family:'SPD TheSans';-inkscape-font-specification:'SPD TheSans Bold';fill:#e3000f"
     id="path1062" /><path
     d="m 650.92669,-9.6344663 q -8.832,-1.7279997 -8.832,11.456 V 14.813534 h -8.192 v -31.808 h 7.744 q 0,1.28 -0.192,3.072 -0.128,1.728 -0.384,3.328 h 0.128 q 0.64,-1.6 1.472,-2.944 0.896,-1.344 2.112,-2.304 1.28,-1.024 2.88,-1.472 1.664,-0.512 3.648,-0.32 z"
     style="font-weight:bold;font-family:'SPD TheSans';-inkscape-font-specification:'SPD TheSans Bold';fill:#e3000f"
     id="path1064" /><path
     d="m 674.54267,-4.8344663 q 0.064,-3.264 -1.408,-4.992 -1.472,-1.7919997 -4.096,-1.7919997 -2.56,0 -4.288,1.7919997 -1.728,1.792 -1.984,4.992 z m 8.128,0.704 q 0,1.536 -0.128,2.88 -0.064,1.34400004 -0.128,1.92000004 h -19.712 q 0,8.44799996 8.448,8.44799996 4.608,0 9.6,-1.664 l 0.832,6.0800003 q -2.688,0.896 -5.696,1.408 -2.944,0.512 -5.696,0.512 -7.744,0 -11.776,-3.968 -4.032,-4.0320003 -4.032,-12.28800026 0,-3.58400004 1.024,-6.65600004 1.024,-3.0719997 3.008,-5.3759997 1.984,-2.304 4.8,-3.52 2.816,-1.28 6.272,-1.28 3.392,0 5.888,1.024 2.56,1.024 4.16,2.88 1.6,1.792 2.368,4.2879997 0.768,2.432 0.768,5.312 z"
     style="font-weight:bold;font-family:'SPD TheSans';-inkscape-font-specification:'SPD TheSans Bold';fill:#e3000f"
     id="path1066" /><path
     d="m 709.48666,14.813534 q 0,-1.472 0.064,-3.008 0.128,-1.6 0.32,-2.6880003 h -0.064 q -1.536,2.9440003 -4.288,4.6720003 -2.752,1.664 -6.528,1.664 -2.624,0 -4.48,-0.768 -1.792,-0.768 -2.944,-2.112 -1.088,-1.408 -1.6,-3.2000003 -0.448,-1.856 -0.448,-4.032 V -16.994466 h 8.128 V 3.3575337 q 0,2.624 0.896,3.968 0.896,1.28 3.072,1.28 1.536,0 2.88,-0.768 1.344,-0.832 2.368,-2.24 1.024,-1.472 1.536,-3.328 0.576,-1.85599996 0.576,-3.904 V -16.994466 h 8.192 v 31.808 z"
     style="font-weight:bold;font-family:'SPD TheSans';-inkscape-font-specification:'SPD TheSans Bold';fill:#e3000f"
     id="path1068" /><path
     d="m 744.75064,-10.594466 q -1.152,-0.256 -2.24,-0.384 -1.024,-0.128 -2.048,-0.128 -3.712,0 -5.888,2.6239997 -2.112,2.56 -2.112,8.19200004 0,9.02399996 5.44,9.02399996 1.536,0 2.816,-0.832 1.28,-0.832 2.176,-2.304 0.896,-1.472 1.344,-3.328 0.512,-1.91999996 0.512,-3.968 z m 0.512,25.408 q 0,-1.216 0.064,-2.624 0.128,-1.408 0.32,-2.6880003 h -0.128 q -1.344,2.7520003 -3.968,4.4160003 -2.624,1.6 -6.08,1.6 -5.696,0 -8.64,-3.968 -2.944,-3.9680003 -2.944,-10.94400026 0,-4.03200004 1.152,-7.36000004 1.152,-3.3279997 3.328,-5.7599997 2.176,-2.432 5.312,-3.712 3.136,-1.344 7.04,-1.344 1.088,0 2.048,0.064 0.96,0.064 1.984,0.192 v -14.592 h 8.128 v 46.72 z"
     style="font-weight:bold;font-family:'SPD TheSans';-inkscape-font-specification:'SPD TheSans Bold';fill:#e3000f"
     id="path1070" /><path
     d="m 779.69464,-4.8344663 q 0.064,-3.264 -1.408,-4.992 -1.472,-1.7919997 -4.096,-1.7919997 -2.56,0 -4.288,1.7919997 -1.728,1.792 -1.984,4.992 z m 8.128,0.704 q 0,1.536 -0.128,2.88 -0.064,1.34400004 -0.128,1.92000004 h -19.712 q 0,8.44799996 8.448,8.44799996 4.608,0 9.6,-1.664 l 0.832,6.0800003 q -2.688,0.896 -5.696,1.408 -2.944,0.512 -5.696,0.512 -7.744,0 -11.776,-3.968 -4.032,-4.0320003 -4.032,-12.28800026 0,-3.58400004 1.024,-6.65600004 1.024,-3.0719997 3.008,-5.3759997 1.984,-2.304 4.8,-3.52 2.816,-1.28 6.272,-1.28 3.392,0 5.888,1.024 2.56,1.024 4.16,2.88 1.6,1.792 2.368,4.2879997 0.768,2.432 0.768,5.312 z"
     style="font-weight:bold;font-family:'SPD TheSans';-inkscape-font-specification:'SPD TheSans Bold';fill:#e3000f"
     id="path1072" /></g></svg>
