<?xml version="1.0" encoding="UTF-8" standalone="no"?>
<svg
   xmlns:dc="http://purl.org/dc/elements/1.1/"
   xmlns:cc="http://creativecommons.org/ns#"
   xmlns:rdf="http://www.w3.org/1999/02/22-rdf-syntax-ns#"
   xmlns:svg="http://www.w3.org/2000/svg"
   xmlns="http://www.w3.org/2000/svg"
   xmlns:sodipodi="http://sodipodi.sourceforge.net/DTD/sodipodi-0.dtd"
   xmlns:inkscape="http://www.inkscape.org/namespaces/inkscape"
   version="1.1"
   width="500"
   height="500"
   viewBox="0 0 321.27974 321.27974"
   id="svg7"
   sodipodi:docname="Logo_SPD_Dudweiler.svg"
   inkscape:version="0.92.4 (5da689c313, 2019-01-14)"
   inkscape:export-filename="/home/kai/Schreibtisch/spd-dudweiler.svg.png"
   inkscape:export-xdpi="181.42857"
   inkscape:export-ydpi="181.42857">
  <metadata
     id="metadata13">
    <rdf:RDF>
      <cc:Work
         rdf:about="">
        <dc:format>image/svg+xml</dc:format>
        <dc:type
           rdf:resource="http://purl.org/dc/dcmitype/StillImage" />
        <dc:title />
      </cc:Work>
    </rdf:RDF>
  </metadata>
  <defs
     id="defs11" />
  <sodipodi:namedview
     pagecolor="#ffffff"
     bordercolor="#666666"
     borderopacity="1"
     objecttolerance="10"
     gridtolerance="10"
     guidetolerance="10"
     inkscape:pageopacity="0"
     inkscape:pageshadow="2"
     inkscape:window-width="1366"
     inkscape:window-height="708"
     id="namedview9"
     showgrid="true"
     units="px"
     showguides="true"
     inkscape:zoom="0.5"
     inkscape:cx="300.32704"
     inkscape:cy="336.22214"
     inkscape:window-x="0"
     inkscape:window-y="30"
     inkscape:window-maximized="1"
     inkscape:current-layer="flowRoot1309"
     inkscape:guide-bbox="true">
    <inkscape:grid
       type="xygrid"
       id="grid38"
       spacingx="6.4255949"
       spacingy="6.4255949"
       enabled="false" />
    <sodipodi:guide
       position="26.45197,119.24936"
       orientation="1,0"
       id="guide867"
       inkscape:locked="false" />
    <sodipodi:guide
       position="294.9348,160.63987"
       orientation="1,0"
       id="guide869"
       inkscape:locked="false" />
    <inkscape:grid
       type="xygrid"
       id="grid1319"
       color="#ff3f62"
       opacity="0.1254902"
       empcolor="#ff0040"
       empopacity="0.25098039"
       spacingx="16.063987"
       spacingy="16.063987"
       originx="160.63987"
       originy="160.63987" />
    <sodipodi:guide
       position="64.255948,273.29644"
       orientation="0,1"
       id="guide114"
       inkscape:locked="false" />
    <sodipodi:guide
       position="48.191961,48.191961"
       orientation="0,1"
       id="guide120"
       inkscape:locked="false" />
  </sodipodi:namedview>
  <flowRoot
     xml:space="preserve"
     id="flowRoot54"
     style="font-style:normal;font-weight:normal;font-size:40px;line-height:1.25;font-family:sans-serif;letter-spacing:0px;word-spacing:0px;fill:#000000;fill-opacity:1;stroke:none"
     transform="matrix(0.64255953,0,0,0.64255953,14.439349,-24.014672)"><flowRegion
       id="flowRegion56"><rect
         id="rect58"
         width="397.52838"
         height="98.239601"
         x="40"
         y="359.13385" /></flowRegion><flowPara
       id="flowPara60"
       style="font-style:normal;font-variant:normal;font-weight:800;font-stretch:normal;font-size:64px;font-family:Catamaran;-inkscape-font-specification:'Catamaran Ultra-Bold';letter-spacing:0px;fill:#e3000f;fill-opacity:1" /></flowRoot>  <g
     aria-label="Dudweiler"
     transform="matrix(0.64255953,0,0,0.64255953,-2.936001,-0.77978303)"
     style="font-style:normal;font-weight:normal;font-size:40px;line-height:1.25;font-family:sans-serif;letter-spacing:0px;word-spacing:0px;fill:#000000;fill-opacity:1;stroke:none"
     id="flowRoot1309">
    <g
       id="g1164"
       transform="matrix(1.1205519,0,0,1.1205519,-30.688813,-43.485994)"
       style="fill:#ffffff">
      <path
         inkscape:connector-curvature="0"
         style="fill:#ffffff;fill-opacity:1;stroke:none;stroke-width:1.55627608"
         d="M 150.00629,211.57432 170.23788,180.4488 C 58.186006,118.19773 5.2726183,253.59378 106.43056,270.71282 c 49.80084,7.78138 6.22511,49.80082 -40.463174,9.33765 L 45.735797,314.28853 C 160.90023,390.54606 235.60148,238.03102 117.3245,227.13709 92.42408,225.58081 90.867804,186.67391 150.00629,211.57432 Z"
         id="S" />
      <path
         inkscape:connector-curvature="0"
         style="fill:#ffffff;fill-opacity:1;fill-rule:evenodd;stroke:none;stroke-width:1.55627608"
         d="m 185.80065,166.4423 v 163.40899 h 46.68828 v -54.46965 h 35.79435 c 57.58221,0 59.13849,-110.49561 0,-108.93934 z m 46.68828,35.79437 h 18.67531 c 20.23159,0 20.23159,38.9069 0,38.9069 h -18.67531 z"
         id="P" />
      <path
         inkscape:connector-curvature="0"
         style="fill:#ffffff;fill-opacity:1;fill-rule:evenodd;stroke:none;stroke-width:1.55627608"
         d="m 322.75294,166.4423 v 163.40899 h 71.5887 c 91.82029,1.55628 91.82029,-163.40899 1.55628,-163.40899 z m 45.13201,38.90692 h 7.78138 c 57.58222,0 57.58222,87.15145 0,87.15145 h -7.78138 z"
         id="D" />
      <path
         sodipodi:nodetypes="ccccccccccccc"
         inkscape:connector-curvature="0"
         id="path4614"
         d="M 54.569226,107.2981 H 420.99844 V 82.298093 h 22.06249 V 107.2981 h 11.63077 l -0.11984,13.00001 h -11.51088 l 3e-5,16.99999 -22.06252,23.00001 v -40 H 54.569226 Z"
         style="fill:#ffffff;fill-opacity:1;stroke-width:19.99999809;stroke-miterlimit:4;stroke-dasharray:none;paint-order:normal" />
      <path
         inkscape:connector-curvature="0"
         id="path30"
         style="font-style:normal;font-variant:normal;font-weight:800;font-stretch:normal;font-size:85.33333588px;font-family:Catamaran;-inkscape-font-specification:'Catamaran Ultra-Bold';text-align:center;letter-spacing:2.51000142px;text-anchor:middle;fill:#ffffff;fill-opacity:1"
         d="m 75.512534,419.16802 q 8.277333,0 14.421333,-3.584 6.144001,-3.584 9.472001,-10.15467 3.328002,-6.656 3.328002,-15.616 0,-8.448 -3.072002,-14.848 -3.072,-6.48533 -9.216001,-10.15466 -6.058666,-3.66934 -14.762667,-3.66934 H 51.448533 v 58.02667 z m 0,-47.18933 q 6.570667,0 9.984,4.77866 3.413333,4.77867 3.413333,13.056 0,9.38667 -3.754666,13.99467 -3.754667,4.608 -10.240001,4.608 H 64.760533 v -36.43733 z" />
      <path
         inkscape:connector-curvature="0"
         id="path32"
         style="font-style:normal;font-variant:normal;font-weight:800;font-stretch:normal;font-size:85.33333588px;font-family:Catamaran;-inkscape-font-specification:'Catamaran Ultra-Bold';text-align:center;letter-spacing:2.51000142px;text-anchor:middle;fill:#ffffff;fill-opacity:1"
         d="m 140.30254,406.02669 q -5.80267,3.66933 -9.64267,3.66933 -2.64533,0 -3.92533,-1.70667 -1.28,-1.792 -1.28,-4.864 V 377.86669 H 112.0572 v 26.28266 q 0,7.59467 3.41334,12.032 3.49866,4.43734 11.264,4.43734 3.92533,0 8.192,-1.62134 4.352,-1.62133 8.192,-4.096 l 3.15733,4.352 h 7.424 v -41.38666 h -13.39733 z" />
      <path
         inkscape:connector-curvature="0"
         id="path34"
         style="font-style:normal;font-variant:normal;font-weight:800;font-stretch:normal;font-size:85.33333588px;font-family:Catamaran;-inkscape-font-specification:'Catamaran Ultra-Bold';text-align:center;letter-spacing:2.51000142px;text-anchor:middle;fill:#ffffff;fill-opacity:1"
         d="m 204.58454,358.92269 v 60.24533 h -6.82667 l -2.47467,-3.328 q -2.56,1.96267 -5.54666,3.15733 -2.98667,1.10934 -6.144,1.10934 -9.64267,0 -15.36001,-5.632 -5.71733,-5.632 -5.71733,-15.95734 0,-10.32533 5.80267,-16.128 5.80266,-5.888 15.78667,-5.888 3.49866,0 7.08266,1.70667 v -18.34667 z m -28.24534,39.50933 q 0,5.12 2.304,8.10667 2.304,2.90133 6.4,2.90133 2.816,0 6.144,-2.38933 v -17.664 q -3.072,-2.13334 -6.48533,-2.13334 -3.75467,0 -6.05867,3.072 -2.304,3.072 -2.304,8.10667 z" />
      <path
         inkscape:connector-curvature="0"
         id="path36"
         style="font-style:normal;font-variant:normal;font-weight:800;font-stretch:normal;font-size:85.33333588px;font-family:Catamaran;-inkscape-font-specification:'Catamaran Ultra-Bold';text-align:center;letter-spacing:2.51000142px;text-anchor:middle;fill:#ffffff;fill-opacity:1"
         d="m 263.42521,419.16802 13.48267,-41.38667 h -13.568 l -5.632,23.72267 -6.22933,-23.72267 h -13.48267 l -5.80267,23.72267 -6.22933,-25.25867 -12.62933,3.66934 12.544,39.25333 h 11.776 l 6.912,-23.38133 7.08266,23.38133 z" />
      <path
         inkscape:connector-curvature="0"
         id="path38"
         style="font-style:normal;font-variant:normal;font-weight:800;font-stretch:normal;font-size:85.33333588px;font-family:Catamaran;-inkscape-font-specification:'Catamaran Ultra-Bold';text-align:center;letter-spacing:2.51000142px;text-anchor:middle;fill:#ffffff;fill-opacity:1"
         d="m 323.16189,398.09069 q 0,-6.05867 -2.21867,-10.92267 -2.13333,-4.864 -6.48533,-7.76533 -4.352,-2.90134 -10.66667,-2.90134 -6.31467,0 -11.264,2.73067 -4.864,2.64533 -7.59467,7.68 -2.73067,4.94933 -2.73067,11.60533 0,10.15467 6.48534,15.872 6.57067,5.71734 17.92,5.71734 5.03467,0 9.216,-1.28 4.26667,-1.28 7.168,-3.41334 l -3.75467,-9.30133 q -5.80266,3.24267 -11.69066,3.24267 -9.04534,0 -10.92267,-7.25334 h 26.53867 z m -26.70934,-3.584 q 0.34134,-3.15734 2.21867,-5.03467 1.96267,-1.96267 4.77867,-1.96267 2.98666,0 4.69333,1.96267 1.792,1.87733 2.304,5.03467 z" />
      <path
         inkscape:connector-curvature="0"
         id="path40"
         style="font-style:normal;font-variant:normal;font-weight:800;font-stretch:normal;font-size:85.33333588px;font-family:Catamaran;-inkscape-font-specification:'Catamaran Ultra-Bold';text-align:center;letter-spacing:2.51000142px;text-anchor:middle;fill:#ffffff;fill-opacity:1"
         d="m 338.59455,372.06402 q 3.072,0 5.20533,-2.13333 2.21867,-2.21867 2.21867,-5.20534 0,-3.072 -2.21867,-5.20533 -2.13333,-2.21867 -5.20533,-2.21867 -2.98667,0 -5.20533,2.21867 -2.13334,2.13333 -2.13334,5.20533 0,2.98667 2.13334,5.20534 2.21866,2.13333 5.20533,2.13333 z m 6.74133,47.104 v -41.38667 h -13.39733 v 41.38667 z" />
      <path
         inkscape:connector-curvature="0"
         id="path42"
         style="font-style:normal;font-variant:normal;font-weight:800;font-stretch:normal;font-size:85.33333588px;font-family:Catamaran;-inkscape-font-specification:'Catamaran Ultra-Bold';text-align:center;letter-spacing:2.51000142px;text-anchor:middle;fill:#ffffff;fill-opacity:1"
         d="m 370.94721,419.16802 v -60.24533 l -13.312,0.93866 v 59.30667 z" />
      <path
         inkscape:connector-curvature="0"
         id="path44"
         style="font-style:normal;font-variant:normal;font-weight:800;font-stretch:normal;font-size:85.33333588px;font-family:Catamaran;-inkscape-font-specification:'Catamaran Ultra-Bold';text-align:center;letter-spacing:2.51000142px;text-anchor:middle;fill:#ffffff;fill-opacity:1"
         d="m 421.69188,398.09069 q 0,-6.05867 -2.21866,-10.92267 -2.13334,-4.864 -6.48534,-7.76533 -4.352,-2.90134 -10.66666,-2.90134 -6.31467,0 -11.264,2.73067 -4.864,2.64533 -7.59467,7.68 -2.73067,4.94933 -2.73067,11.60533 0,10.15467 6.48534,15.872 6.57066,5.71734 17.92,5.71734 5.03466,0 9.216,-1.28 4.26666,-1.28 7.168,-3.41334 l -3.75467,-9.30133 q -5.80267,3.24267 -11.69067,3.24267 -9.04533,0 -10.92266,-7.25334 h 26.53866 z m -26.70933,-3.584 q 0.34133,-3.15734 2.21867,-5.03467 1.96266,-1.96267 4.77866,-1.96267 2.98667,0 4.69334,1.96267 1.792,1.87733 2.304,5.03467 z" />
      <path
         inkscape:connector-curvature="0"
         id="path46"
         style="font-style:normal;font-variant:normal;font-weight:800;font-stretch:normal;font-size:85.33333588px;font-family:Catamaran;-inkscape-font-specification:'Catamaran Ultra-Bold';text-align:center;letter-spacing:2.51000142px;text-anchor:middle;fill:#ffffff;fill-opacity:1"
         d="m 443.86588,394.42135 q 3.072,-2.64533 6.912,-4.26666 3.92534,-1.70667 6.912,-1.70667 l -2.64533,-10.66667 q -3.15733,0 -7.08267,1.87734 -3.92533,1.792 -6.912,4.096 l -3.75466,-5.888 h -6.82667 v 41.30133 h 13.39733 z" />
    </g>
  </g>
</svg>
